<svg xmlns="http://www.w3.org/2000/svg" viewBox="0 0 176.3 64.6"><title>logo-1</title><g data-name="Layer 2"><path fill="#d8d2c4" d="M0 50.5h176.3v14.08H0zm40.1-15.4H27.7l-1.5 4.1a.5.5 0 0 1-.5.3H19c-.4 0-.7-.3-.5-.6L33.5.3a.6.6 0 0 1 1 0l15 38.6c.2.3-.1.6-.4.6h-6.9a.5.5 0 0 1-.4-.3zm-10-6.4h7.7L34 17.2zm49.9.6a.7.7 0 0 1 .8 0l4.4 4.4a.4.4 0 0 1 0 .7A19 19 0 0 1 71.5 40c-10.6 0-19.3-7.7-19.3-19.7S60.3.6 71.5.6a18.8 18.8 0 0 1 13.6 5.6.4.4 0 0 1 0 .7l-4.4 4.4a.7.7 0 0 1-.8 0 11.9 11.9 0 0 0-8.4-3.6c-7.4 0-11.9 5.3-11.9 12.6S65 32.9 71.5 32.9a11.9 11.9 0 0 0 8.5-3.6zm43.8-2.7a.5.5 0 0 1-.5.4h-6.1a.5.5 0 0 1-.5-.4V15.8l-5.6 9.9-.5.2h-5l-.5-.2-6.3-10.3v11.2a.5.5 0 0 1-.5.4H92a.5.5 0 0 1-.5-.4V1.5a.5.5 0 0 1 .5-.4h5.8l.5.2 9.6 16 9.2-16 .5-.2h5.8a.5.5 0 0 1 .5.4zm0 12.4a.5.5 0 0 1-.5.4H92a.5.5 0 0 1-.5-.4v-6.2a.5.5 0 0 1 .5-.4h31.3a.5.5 0 0 1 .5.4zm15.6-30.9v8.7h15.1a.5.5 0 0 1 .5.4v6.1a.5.5 0 0 1-.5.4h-15.1v8.7h18.2a.5.5 0 0 1 .5.4V39a.5.5 0 0 1-.5.4h-25a.5.5 0 0 1-.5-.4V1.5a.5.5 0 0 1 .5-.4h24.5a.5.5 0 0 1 .5.4v6.1a.5.5 0 0 1-.5.4z"/><path d="M20.6 54.5v2.4h4v1.6h-4v4H19v-9.6h6.5v1.6zm11.5 8.1l-2.5-4h-.9v4H27v-5.7h1.5L27 54.5v-1.6h3.2s3.2 0 3.2 2.8a2.6 2.6 0 0 1-2.1 2.7l2.6 4.2zm-1.6-5.7c.4 0 1.4-.2 1.4-1.2s-1.6-1.2-1.6-1.2h-1.4z" fill="#fff"/><path d="M39.8 62.7c-6.4 0-6.4-9.9 0-9.9s6.4 9.9 0 9.9zm0-8.3c-4.2 0-4.2 6.8 0 6.8s4.2-6.9 0-6.9zm17.1 8.2h-1.6v-6l-2.8 5.9H51l-3-6.1v6.1h-1.6v-9.6H48l3.7 7.5 3.5-7.5h1.6zm13.5-2.8c0 2.7-2.7 2.8-3.4 2.8h-3.1v-9.7h3.2s3.2-.1 3.2 2.7a2.1 2.1 0 0 1-1.6 2.1 2.1 2.1 0 0 1 1.7 2.1zm-5-2.9H67s1.6 0 1.6-1.2-1.6-1.2-1.6-1.2h-1.5zm3.4 2.8c0-1.3-1.7-1.2-1.7-1.2h-1.6V61h1.6c.7 0 1.7-.2 1.7-1.3zm5-5.2v2.4h4v1.6h-4v2.4h4.8v1.6h-6.4v-9.6h6.5v1.6zm11 6.9h-3.4l-.4 1.2h-1.8l3.9-9.9 3.9 9.9h-1.8zM81.9 60h2.3L83 56.6zm14.2 2.6h-1.6l-4.8-6.9v6.9H88v-9.7h1.6l4.8 6.9v-6.9H96zm11.8-8.2h-2v8.2h-1.6v-8.2h-2v-1.5h5.7zm1 1.9a3.6 3.6 0 1 1 3.6 3.6 3.6 3.6 0 0 1-3.6-3.6zm6.7 6.2h-6.4V61h6.4zm-5.1-6.2a2 2 0 1 0 2-2 2 2 0 0 0-2 2zm20.4 6.3h-1.6l-4.8-6.9v6.9h-1.6v-9.7h1.6l4.8 6.9v-6.9h1.6zm2.2-3.1v-6.6h1.6v6.6a1.8 1.8 0 0 0 2 1.6c1 0 2-.5 2-1.6v-6.6h1.6v6.6c0 2.1-1.6 3.2-3.6 3.2a3.3 3.3 0 0 1-3.6-3.2zm13-1.7l4 4.8H148l-3-3.7-.9 1v2.7h-1.6v-9.7h1.6v4.9l4-4.9h2zm6.9-3.3v2.4h4v1.6h-4v2.4h4.8v1.6h-6.5v-9.6h6.5v1.6z" fill="#fff"/></g></svg>