<svg xmlns="http://www.w3.org/2000/svg" viewBox="0 0 139.6 40"><title>logo-2</title><path d="M21.7 35.1H9.3l-1.5 4.1a.5.5 0 0 1-.5.3H.5c-.4 0-.7-.3-.5-.6L15 .3a.6.6 0 0 1 1 0l15 38.6c.2.3-.1.6-.4.6h-6.9a.5.5 0 0 1-.4-.3zm-10.1-6.4h7.7l-3.8-11.5zm49.9.6a.7.7 0 0 1 .8 0l4.4 4.4a.4.4 0 0 1 0 .7A19 19 0 0 1 53.1 40c-10.6 0-19.3-7.7-19.3-19.7S41.8.6 53.1.6a18.8 18.8 0 0 1 13.6 5.6.4.4 0 0 1 0 .7l-4.4 4.4a.7.7 0 0 1-.8 0 11.9 11.9 0 0 0-8.4-3.6c-7.4 0-11.9 5.3-11.9 12.6s5.3 12.6 11.9 12.6a11.9 11.9 0 0 0 8.4-3.6zm43.9-2.7a.5.5 0 0 1-.5.4h-6.2a.5.5 0 0 1-.5-.4V15.8l-5.6 9.9-.5.2H87l-.5-.2-6.2-10.3v11.2a.5.5 0 0 1-.5.4h-6.3a.5.5 0 0 1-.5-.4V1.5a.5.5 0 0 1 .5-.4h5.8l.5.2 9.6 16 9.2-16 .5-.2h5.8a.5.5 0 0 1 .5.4zm0 12.4a.5.5 0 0 1-.5.4H73.5a.5.5 0 0 1-.5-.4v-6.2a.5.5 0 0 1 .5-.4h31.3a.5.5 0 0 1 .5.4zm15.5-30.9v8.7H136a.5.5 0 0 1 .5.4v6.1a.5.5 0 0 1-.5.4h-15.1v8.7h18.2a.5.5 0 0 1 .5.4V39a.5.5 0 0 1-.5.4h-25a.5.5 0 0 1-.5-.4V1.5a.5.5 0 0 1 .5-.4h24.5a.5.5 0 0 1 .5.4v6.1a.5.5 0 0 1-.5.4z" fill="#ee3c44" data-name="Layer 2"/></svg>