<svg xmlns="http://www.w3.org/2000/svg" viewBox="0 0 34.3 32"><title>logo</title><g fill="#ee3c44" data-name="Layer 2"><path d="M10.2 13.4H7.4l-.3.9H5.3c-.1 0-.2-.1-.1-.1l3.5-9h.2l3.5 9c0 .1 0 .1-.1.1h-1.7zm-2.3-1.5h1.8l-.9-2.7zm13.3 0h.2l1 1a.1.1 0 0 1 0 .2 4.5 4.5 0 0 1-7.6-3.3 4.5 4.5 0 0 1 7.6-3.3.1.1 0 0 1 0 .2l-1 1h-.2a2.8 2.8 0 0 0-2-.8 2.7 2.7 0 0 0-2.8 2.9 2.7 2.7 0 0 0 2.8 2.9 2.8 2.8 0 0 0 2-.8zm-8.5 11.9H11v-2.5l-1.3 2.2H8.3l-1.4-2.3v2.6H5.2v-5.9h1.6L9 21.6l2.1-3.7h1.6zm0 2.8H5.2v-1.4h7.5zm5.2-7.1v2h3.6V23h-3.6v2h4.5v1.5h-6.2v-8.6h6.1v1.4h-4.4z"/><path d="M27.6 32H0V.1h27.7v11.8H26v-10H1.8v28.2H26v-9.2l1.3-.6h.1l6.8 5.2a.1.1 0 0 1 0 .2l-.9 1.2h-.2l-5.3-4a.1.1 0 0 0-.2.1v9z"/></g></svg>