<svg id="Layer_1" xmlns="http://www.w3.org/2000/svg" viewBox="0 0 640 640"><style>.st0{fill:none;stroke:#000;stroke-linecap:round;stroke-linejoin:round}</style><title>progetto-lato-1</title><path class="st0" d="M587.6 403.1v158.6m0 69.1v-76.2M418.1 348.5l-1.2-2M295.3 485.6l62.5-38.6m73.7-76.5l-.1.2m3.6 3.2v.2m0 .1l.2.1m0 0v.2m0 0l.1.2m.1 0v.3m0 0l.2.1m0 0l.2.2m0 .1v.2m0 0v.1m0 0l.1.2m0 0v.3m0 0l.2.2m0 0v.1m0 0v.3m0 .1l.1.2m0 0v.2m0 0v.3m0 0l.2.1m0 0v.5m0 .1v.5m0 0l.2.3m.1.1v.5m0 0v.5m0 0v.5m0 .1v.4m0 0v.5m0 .1v.2m0 0l-.2.3m-.1 0v.1m0 0v.2m0 0v.3m0 .1v.2m0 0l-.2.3m0 0v.2m0 0v.1m0 0l-.1.3m0 .1v.2m0 0l-.2.2m0 0v.3m0 0l-.1.1m0 0v.2m0 0l-.2.2m0 .1v.3m0 0l-.2.1m0 0v.2m0 0l-.1.2m-.1 0l-.2.1m0 0v.2m0 .1l-.1.1m0 0l-.2.2m0 0l-.2.2m0 0v.1m0 0l-.1.2m0 0l-.2.1m0 0l-.1.2m-.1.1l-.2.2m1.2-14.2l1.2 2M433 387l-31.1 27.4m.7 1.2l-.5-1.4m31.5-40l.2.1m0 0v.2m0 0h.2m0 0v.2m0 0v.1m0 0l.1.2m.1 0v.1m0 0l.2.4m0 .1v.1m0 0l.1.2m0 0v.1m0 0v.2m0 0l.2.2m0 0v.1m0 0l.2.5m0 .1v.3m0 0l.1.5m0 .1v.3m0 0v.5m0 0l.2.5m0 .1v.3m0 0v.5m0 0v.5m0 .1v.3m0 0l-.2.5m0 .1v.1m0 0v.3m0 0v.2m0 0v.1m0 0v.4m0 .1l-.1.1m0 0v.2m0 0v.1m0 0l-.2.4m0 0v.1m0 0v.2m0 .1l-.2.1m0 0v.2m0 0v.2m0 0l-.1.3m0 0v.1m0 0l-.2.2m0 0l-.1.2m-.1.1v.1m0 0l-.2.2m0 0v.1m0 0l-.2.2m0 0l-.1.2m0 0v.1m0 0h-.2m0 0v.2m0 .1h-.1m0 0v.1m0 0h-.2m0 0v.2m-.9-15.2l1.5 2.4m-.6-3.2l2.1 2.9m-3-2.1l.9-.8M296.1 486.8l-24 14.7m.5.8l-.5-.9m24.5-13.7l-.5-.9m0 0l62.4-38.6m-63.2 37.4l.8 1.2m-24.7 13.7l.7 1m86.4-53.3l-.7-1.2m74.3-75.2L393.9 396m-134.7 84.7l6-3.8M433 370.7v.3m0-.3c-.2-.2-.5-.3-.9-.3M393.9 396l-.5-.9m-45.5 29.1l.5 1m45.5-29.2l-45.4 29.1m-89.3 55.6l.5 1.1m23.3-16.2l.5.9m117.2-51l1.2-1.1M357.8 447l.9-.5m42-31c.3.3.7.6 1.1.9m-1.1-.9l-.7.7m0-.1l-.9.8m0 0l-.8.7m.1-.1l-.7.7m0 0l-.3.3m0 0l-.2.4m0 0l-.3.4m0 .1l-.3.4m-.1 0l-.2.3m0 0l-.3.3m0 .1l-.3.3m0 0l-.2.5m0 0l-.1.3m-.1.1l-.3.3m0 0l-.2.5m0 0l-.2.3m0 .1l-.1.4m0 0l-.2.4m0 0l-.1.5m-.1.1l-.2.3m0 0l-.2.5m0 0l-.1.5m0 .1v.5m0 0l-.2.5m0 .1l-.1.4m0 0v.5m0 .1v.5m0 0v.5m0 0l-.2.4m0 .1v.5m0 0v.5m0 .1v.5m0 0l.2.5m0 .1v.4m0 0v.5m0 0v.5m0 .1l.1.3m0 0v.5m0 0l.2.5m0 .1v.5m0 0l.3.9m0 0l.2 1m0 0l.3.9m.1-.1l.1.9m0 0l.8 2m-.1 0l1.4 3.6m-38 2.4c.2.4.5.8.9 1.1m18.6 7.9l-.9-1.8m0-.1l-.9-1.7m0 0l-.3-.7m0 0l-.4-.9m0 .1l-.4-.8m-.1 0l-.4-.7m0 .1l-.3-.3m0-.1l-.1-.4m0 0l-.2-.3m-.1 0l-.2-.3m0-.1l-.3-.3m0 0l-.1-.2m0 0l-.2-.3m0 0l-.3-.2m-.1 0l-.2-.3m0-.1l-.3-.1m0 0l-.2-.3m0 0l-.1-.2m0 0l-.2-.2m0 0h-.1m0 0l-.2-.1m-.1 0l-.2-.2m0-.1l-.1-.1m0 0h-.2m0 0v-.2m0 0h-.1m0 0l-.2-.2m0 0h-.2m-.1 0h-.1m0 0v-.1m0 0h-.2m0 0l-.1-.2m0 0h-.2m0 0h-.1m0 0l-.2-.1m0 0h-.2m0 0h-.1m-.1 0l-.2-.2m0-.1h-.1m0 0h-.2m0 0h-.2m0 0h-.1m0 0l-.2-.2m0 0h-.1m-.1 0h-.2m0 0h-.2m0 0h-.1m0 0h-.2m0 0h-.1m0 0h-.2m0 0h-.2m-.1 0h-.1m0 0h-.2m0 0h-.1m0 0h-.2m0 0h-.2m0 0l-.1.2m0 0h-.2m-.1 0h-.1m0 0h-.2m0 0l-.5.2m0 .1h-.3m-.1 0l-.3.1m0 0l-.5.2m0 0l-.3.1m0 0l-.5.2m-.1 0l-.3.2m0 0l-.5.1m-.1 0l-.3.2m0 .1l-.5.1m0 0l-.5.4m-.1 0l-.4.1m0 0l-1.1.7m-98.9 35.3l-206.7 132m206.1-133.1L52.4 612.8m10.4 16.3l208.6-128.6M63.5 630.3L272 501.5m109.8-19.7v-15.3m-2.8-6.1V481m0-20.6v-.5m-8-13.8c-1.4-.7-3-1-4.6-.9m9.8 8.2l.2 1.6m0 0v20.7m3.1-14.6l-.4-.8m-2.7-5.3l-.2-.5m30.2 8.5l64 167.3M398 443.4c.3.2.7.2.9-.2m70.8 187.1L398 443.4m72.5 186.9h-.8m-72.9-186.2l1.2-.7m-1.2.7l71.4 186.2m1.5 0h-1.5m-14.4 0l-75.7-174.8m90.1 174.8h-14.4m-75.6-174.8l-.9.3m76.5 174.5h-1.1m17.4.5c.2 0 .3 0 .3-.2v-.3m11.5-218v-.2m0 0l-1.7-.7m-.1 0l-2.1-.9m.1.1l-1.8-.9m-.1 0l-2-1m.1 0l-2-.9m0 .1l-1.7-1.1m0 0l-1.6-1.1m-.1 0l-1.6-.9m0 0l-1.5-1m0 0l-1.4-.9m0 .1l-1.4-1.1m0 0l-1.4-1m0 0l-1.5-1.1m-.1 0l-1.8-1.7m0 0l-.5-.3m-.1-.1l-.8-.5m.1 0l-.1-.3m0 0l-.2-.2m0 0h-.1m-.1 0l-.2-.1m0 0l-.2-.2m0-.1v-.1m0 0h-.1m0 0l-.2-.2m0 0l-.1-.2m0 0h-.2m0 0l-.2-.1m-.1 0l-.3-.2m0 0l-.1-.1m0 0l-.4-.2m0-.1h-.3m-.1 0l-.1-.2m0 0l-.4-.1m0 0l-.3-.2m0 0h-.3m-.1 0l-.2-.1m0 0l-.3-.2m0 0h-.3m0 0l-.3-.2m0 0h-.3m-.1 0l-.8-.1m.1-.1l-.3-.2m-.1 0h-.3m0 0l-.9-.1m0 0h-.7m.1 0l-.8-.2m0 0h-.9m.1 0h-.7m0 0h-.9m0 0h-.9m.1 0h-.8m0 0h-.9m0 0l-.8.2m.1 0h-.9m0 0l-.8.1m0 0l-1 .2m.1 0l-.9.1m0 .1l-.8.2m0 0l-.9.2m.1 0l-.9.1m0 0l-.9.3m0 0l-.7.2m.1 0l-.8.2m0 .1l-1.6.6m0 0l-.8.2m0 0l-.9.3m.1.1l-1 .5m0 0l-3 1.3m-.1 0l-5.9 2.6m58.2 2.1h-.2m0 0v-.1m0 0l-3.5-1.6m0-.1l-3.6-1.6m0 0l-3.5-1.7m.1 0l-3.3-2m0 0l-1.6-1.1m0 0l-1.5-.9m-.1.1l-1.5-1m0 0l-1.6-1.1m0 0l-1.4-1m0 0l-1.3-1.1m0 0l-1.3-1m0 0l-.4-.5m-.1 0h-.2m0 0l-.3-.2m0 0v-.1m0 0l-.3-.2m0 0l-.2-.2m-.1-.1l-.3-.1m0 0l-.2-.2m0 0l-.1-.1m0 0h-.2m0 0l-.3-.2m0 0l-.2-.2m-.1 0h-.3m0 0l-.1-.1m0 0l-.4-.2m0-.1l-.3-.1m-.1 0h-.3m0 0l-.3-.2m0 0l-.3-.2m0 0h-.4m-.1 0l-.4-.1m0 0h-.4m0 0l-.3-.2m-.1 0h-.5m0 0l-.3-.1m0 0h-.9m0 0l-.5-.2m-.1-.1h-.9m.1 0h-.9m0 0l-1-.2m0 0h-.9m.1 0l-.9.2m0 0h-1.1m0 0h-1m0 0l-1.1.2m0 .1l-1 .1m-76.8 63l8.8-3.4m27.6-10.3l23.4-9.8m0 0l22.1-10m0 0l1.4-.5m0 0l1-.5m0 0l1.1-.3m-.1-.1l.9-.3m0 0l.9-.4m0 0l.9-.1m-.1 0l.9-.2m0-.1l1.2-.3m0 0l.7-.2m0 0h.8m-.1 0l.7-.1m0 0l.7-.2m-.1 0h.8m0 0h.7m-.1 0l.8-.1m0 0h.4m0 0h.9m0 0h.8m0 0h.7m-.1 0l.8.1m0 0h.7m-.1 0h.7m0 0l.8.2m0 0l.7.1m-.1 0l.7.2m0 0l.8.2m-.1 0l.7.1m0 0l.8.2m-.1.1l.4.1m.1 0l.4.2m0 0h.3m0 0l.5.3m.1 0l.4.2m0 0l.4.1m0 0l.1.2m0 .1l.3.2m.1 0l.4.1m0 0l.1.2m0 0l.3.1m0 0l.2.2m.1 0l.2.2m0 0l.3.1m0 .1l.3.3m0 0l.2.2m0 0l.3.3m.1 0l.3.3m0 0l.5.5m0 .1l1.2.9m0 0l1.5 1.4m.1 0l1.6 1.2m0 0l1.2.9m0-.1l1.4 1.1m0 0l1.3.9m0 0l1.4.9m0 0l2 1m0-.1l1.7 1.1m0 0l1.8 1m.1 0l1.7 1.1m0 0l2.1.9m0 0l2 1m-.1-.1l2.3.9m0 0l1.5.8m0 0l.2.1m-151 26.4l28.9-10.2m24.4-9l30.3-12.3m0 0l11-4.8m0 0l1.5-.4m0 0l1.6-.8m.1 0l1.8-.5m0 0l.9-.3m0-.1l1.1-.1m0 0l1.7-.5m0 0l1-.3m0-.1l.9-.2m0 0l.9-.2m-.1 0l1.1-.1m0 0h.9m0 0l.9-.2m0 0l.9-.1m-.1 0h.9m0 0h.9m0 0l1-.2m0 0h.8m-.1 0h.7m0 0h.9m-.1 0l.7.2m0 0h.8m0 0h.7m-.1 0l.7.1m0 0h.8m-.1 0l.7.2m0 0l.8.1m-.1 0h.4m.1 0l.8.2m-.1 0l.5.2m.1 0l.4.1m0 .1l.4.2m0 0l.1.1m0 0h.3m.1 0l.2.2m0 0h.2m0 0l.3.2m0 0l.1.1m0 0h.2m.1 0l.2.2m0 0l.1.1m0 .1l.2.2m0 0h.1m0 0l.4.2m0 0l.1.1m.1 0l.2.2m0 0v.1m0 0h.1m0 0l.2.2m0 0l.7.7m0 0l.8.4m-.1 0l.7.4m0 .1l1.5 1.3m0 0l1.6 1.2m0 0l1.4.9m0-.1l1.3.9m0 0l1.4.9m.1 0l1.4.9m0-.1l1.7 1m0 0l1.8.9m.1 0l1.7.9m0 0l1.7.9m0-.1l4 2m.1 0l3.5 1.4m-.1 0h.2m.1 0v.1m-3.7 5.2h-.2m-.1 0v-.2m0 0l-1.5-.4m0 0l-2.1-.9m0 0l-3.8-1.7m0 0l-2-.9m.1 0l-1.7-.9m-.1 0l-1.7-1.1m0 0l-1.7-.9m0 .1l-1.5-.9m-.1 0l-1.4-.9m0 0l-1.4-.9m0 .1l-1.3-.9m0 0l-1.6-1.2m0 0l-1.5-1.1m0 0l-1.2-1m0 0l-.8-.3m0 0l-.1-.2m0 0l-.3-.3m0 0l-.4-.3m-.1-.1h-.1m0 0l-.2-.2m0 0h-.1m0 0l-.2-.1m0 0l-.2-.2m0 0h-.1m0 0l-.3-.2m-.1 0l-.2-.1m0 0h-.2m0 0l-.4-.2m0-.1l-.2-.1m-.1 0h-.2m0 0h-.3m0 0l-.3-.2m0 0l-.3-.2m-.1 0h-.5m0 0l-.5-.1m0 0h-.4m-.1 0l-.5-.2m0 0h-.5m-.1 0l-.5-.1m0 0h-.7m0 0h-.5m0 0h-.7m0 0h-.5m0 0h-.5m0 0h-.9m0 0l-.7.1m0 0h-.8m.1 0h-.7m0 0l-.8.2m.1 0l-.7.1m0 0h-.7m.1 0l-.9.2m0 0l-.8.2m0 0l-.7.1m.1 0l-1.5.5m0 .1l-.9.2m0 0l-.8.1m0 0l-1.5.5m0 .1l-1.2.5m0 0l-1.1.3m0 0l-.7.3m.1.1l-1.4.5m0 0l-19.2 7.9m-.1 0l-20.5 8M103.6 21.9l-.2-.4m0 0v-.3m0-.1v-.3m0 0v-.2m0 0v-.1m0 0v-.2m0 0v-.1m0 0V20m0-.1v-.2m0 0v-.1m0 0v-.2m0 0v-.1m0 0v-.2m0 0V19m0 0v-.2m0-.1v-.2m0 0h.2m0 0v-.1m0 0v-.2m0 0v-.1m0 0h.1m.1 0v-.2m0 0v-.2m0 0h.2m0 0v-.1m0-.1h.1m0 0v-.2m0 0l.2-.1m0 0l.2-.2m0 0h.1m0 0v-.2m0 0h.2m0 0h.1M17.5 50.7l1.2-.4m0 0l2-.4m0-.1l7.4-2.3m0 .1l75.6-25.7m143.6 322.9l-16.3 1.4m0-.2v.2m16.3-1.4L231 346m0 .2l-48.6 4m0 0h-.7m0 0h-1.4m0 0h-1.2m0 0h-1.2m0 0l-1.4-.2m0 0l-1.4-.2m0 0l-1.4-.1m0 0l-1.3-.2m0 0l-1.4-.3m-.1-.1l-1.4-.2m0 0l-1.4-.3m0 0l-1.3-.5m0 0l-1.4-.3M231 346l-37.3 2.8m0 0l-6.1.5m0 .1l-2.4.1m0 0h-.3m0 0h-1.7m-.1 0h-.9m0 0h-1.1m.1 0h-1.5m-.1 0h-1.1m.1 0l-.9-.1m0 0l-1-.2m0-.1h-1.1m0 0l-.9-.2m0 0l-.9-.1m.1 0l-.9-.2m0 0l-.9-.1m0 0l-1.1-.4m.1 0l-.8-.1m0 0l-1.1-.3m0-.1l-.9-.2m-35.8-41l-3-6.5m-.1 0l-3-8.2m0 0l-.4-1.1m-.1.1l-.7-1.8m.1-.1l-.7-2.2m0 0l-.5-2.1m0 .1l-.5-2.1m-.1 0l-.3-1.2m0 0l-.2-1.1m0 0l-.3-2.2m0 0l-.1-1.1m0 .1l-.2-1.1m-.1 0v-1m0 0l-.2-1.2m0 0v-1.1m0 0v-1m0 0v-1.1m0 0v-.9m0 .1v-1.1m0 0v-1m0 0v-1.1m0 0l.2-1m0 0l.2-1.1m.1.1l.1-1m0 0l.2-.9m0 0l.1-1.1m0 0l.4-1.1m0 0l.1-.9m0 .1l.3-1m.1 0l.4-.9m0 0l.3-1.1m0 0l.5-.9m.1.1l.3-1m0 0l.4-.9m0 0l.5-1.2m.1 0l.8-1.1m2.3-4.1l.7-1.4m.7-1.4l-1.1 2.1m-2.2 4l-.7 1.4m0 0l-.3.5m0 0l-.2.7m0 0l-.7 1.2m0 0l-.2.5m0 0l-.1.7m0 0l-.2.5m0 0l-.3.7m0 0l-.2.8m-.1-.1l-.1.5m0 .1l-.2.7m0-.1v.7m0 0l-.1.9m0-.1l-.2.8m0 0l-.2.7m0-.1v.8m0 0l-.1.7m0 0v.9m0-.1v.7m0 0v.8m0-.1l-.2 1.5m-.1.1v.9m0-.1v.9m0 0l.2 1.5m.1 0l.1 1.7m0 .1l.2 1.7m0 0l.2 1.7m0 0l.3 1.6m0 .1l.3 1.7m.1 0l.3 1.7m0 .1l.3 1.8m0 0l.5 1.7m0 0l.5 1.7m.1.1l.9 2.6m0 0l.7 1.7m-.1 0l1.1 2.9m0 .1l1.4 3.3m0-.1l1.8 4.9m.1 0l2.3 4.7m-4.6-60l70.5-125.5M181.4 34l-1.3-2.1m-.1-.1l-.2-.4m-.1 0l-.4-.7m0 0l-2.8-3.8m-11.1 320.8l-1.1-.5m0 0l-1.2-.3m0 0l-1.1-.5m0-.1l-1-.3m0 0l-1.1-.4m.1 0l-.9-.5m0-.1l-.9-.5m0 0l-.4-.3m0-.1l-.4-.2m0 0l-1-.7m0 .1l-.9-.5m0-.1l-.9-.7m0 .1l-.9-.8m.1 0l-.9-.7m0 .1l-.9-.9m0 0l-.7-.9m.1 0l-.9-.8m0 .1l-.8-.9m0 0l-.5-.7m0 0l-.7-.9m0 .1l-.7-.9m.1 0l-.5-.9m0 0l-.9-1.4m0 0l-2-2.7m0 0l-1.8-3.3m0 0l-2-3.2m0 .1l-1.7-3.4m0 0l-1.7-3.4m-.1.1l-4.8-10.3m2.4-.4l2.9 6.4m.1 0l3.5 6.4m0 0l3.5 6.1m-.1 0l1.5 2.9m.1 0l1.7 2.8m0 .1l2.3 3.3m0-.1l.5.8m0 0l.3.7m.1 0l.5.5m0 0l.5.7m0-.1l.4.7m.1 0l.5.5m0 0l.7.8m0 0l.5.7m0 0l.8.7m0-.1l.7.5m-.1.1l.5.5m.1 0l.7.7m-.1-.1l.8.5m0 .1c3.1 2.4 6.7 4.2 10.5 5.2M103.6 21.9l21-7.3m3.5 227.4l68.8-123.7m0-.1l.2-.4m0 0l.7-1.2m0 0l.5-1m0 0l.5-1.3m.1 0l.3-.7m0 .1l.3-.9m0 0l.5-1.5m.1 0l.3-1.1m0 0l.5-1m0 0l.3-1.7m.1 0l.2-.8m0 0l.1-.9m0 0l.4-1.4m0 0l.3-1.3m.1 0l.1-1.4m0 0l.2-1.4m0 0v-1.4m0 0l.2-1.3m0 0v-1.4m0 0v-1.6m0-.1v-1.2m0 0l-.2-1.3m0 0v-1.3m0 0l-.2-1.2m0 0l-.1-1.2m0 0l-.2-1.2m-.1 0l-.1-1.2m0 0l-.4-1.1m0 0l-.3-1.2m0 .1l-.3-1.2m-.1 0l-.3-1.2m0 0l-.3-1.3m0 0l-.5-1.2m0 0l-.3-1m-.1 0l-.5-1.3m0 0l-.5-1m-.1 0l-.5-1.2m0 0l-17.5-33.1m0 .1l-1.2-2.2m0 0l-.3-.8m0 0l-.3-.4m-.1 0v-.2m0 0l-.4-.7m0 0l-.3-.8m0 0l-.9-1.2m0 .1l-.9-1.4m0-.1l-.7-1.2m.1 0l-.9-1.1m0 .1l-1.1-1.3m0 0l-1-1.1m.1 0l-.9-1m0 0l-1.1-1.1m0 0l-.5-.7m0 0l-.7-.8m0 .1l-.7-.5m.1-.1l-.8-.7m0 .1l-.7-.5m0-.1l-.8-.7m.1.1l-.9-.5m0 0l-.7-.5m.1-.1l-1.1-.7m0 .1l-.9-.8m0 0l-1-.7m0 0l-1.1-.5m0 0l-.8-.4m0 0l-.9-.5m0-.1l-1-.5m0 0l-.9-.5m0-.1l-.9-.3m.1 0l-1.1-.3m0 0l-1.4-.8m0 0l-1.5-.4m0 0L151 15m-.1-.1l-1.5-.3m0 0l-1.5-.4m0 0l-1.6-.3m0 0l-1.5-.3m-.1-.1l-1.5-.2m0 0l-1.4-.1m0 0l-1.6-.2m0 0h-1.5m0 0l-1.5-.1m-.1 0l-1.6.1m0 0H134m0 0l-1.5.2m0 0l-1.4.1m-.1 0l-1.7.2m0 0l-1.6.3m0 .1l-1.5.3m-.1 0l-1.5.4m1.9 294.6l-2.6-5.8m0 .1l-2.1-5.3m0 0l-.9-2.5m0 0l-.9-2.4m.1 0l-.7-2.3m0 0l-.8-2.2m0 0l-.4-2.2m0 0l-.5-2.1m0 .1l-.3-1.8m-.1-.1l-.2-1.1m0 0l-.2-.9m0 .1v-1m0 0l-.1-.9m0 0l-.2-1.1m0 0v-.8m0 0v-.9m0 0V275m0 0v-.9m0 0v-.8m0 .1v-.9m0 0v-.9m0 0l.2-.9m0 .1v-.9m0 0l.1-.9m0 0v-.9m0 .1l.2-.9m0 0l.2-.9m0 0l.1-.9m.1 0l.2-.9m0 .1l.1-.9m0 0l.4-.9m0 0l.1-.9m0 .1l.3-.9m0 0l.4-.9m.1 0l.1-.9m0 .1l.8-1.7m0-.1l.7-1.7m-.1 0l.9-2m0 0l.9-1.7m-.1 0l2-3.8m0 0l3.8-6.5m3.3 77.7l-4.9-10.4m35.7 43.9l-1.2-.3m0-.1l-1.2-.5m.1 0l-1.2-.5m0 0l-1.1-.5m0-.1l-1.2-.7m0 .1l-1.2-.8m0 0l-1.1-.7m0 .1l-1.2-.7m0 0l-.9-.8m0 0l-1.1-.7m0 .1l-1.2-.9m0 0l-1-.9m.1 0l-.8-.5m0 0l-.5-.5m0 0l-.7-.7m0 0l-.5-.5m0 0l-.7-.7m0 0l-.5-.8m0 0l-.9-.9m0 .1l-.9-1m0 0l-.7-.8m.1 0l-.5-.9m-.1.1l-.5-.7m0 0l-.5-.9m-.1 0l-1.8-2.9m0 0l-2.6-4.3m0 0l-2.6-4.7m0 0l-2.6-5m99.2 31.2l-51 4.9m0 0h-1.2m0 0h-1.1m.1 0h-1.1m0 0h-1m0 0h-1.1m0 0l-1-.2m0 0h-1.1m0 0l-.9-.2m.1-.1l-1-.1m0 0l-1.1-.2m0 0l-1.1-.1m0 0l-1-.2m0 0l-1.1-.3m.1 0l-.9-.2m0 0l-1-.3m0-.1l-1.1-.3m0 0l-.9-.3m95.8-4.9l-27.4 2.6m27.6-7h-.2m168.9 17.8l-1.4-2m-2.8-4.4l-1.7-2.7m-7.6-10.4h-.2m-12.5-8.2l-.7-.3m-.2 0l-1.8-.5m30.6 39.4l-15.2-23.2m0 .1l-.9-1.4m0 0l-.5-.4m0-.1l-.3-.5m0 0l-.5-.5m-.1-.1l-.5-.5m0 0l-.3-.4m-.1 0l-.5-.5m0-.1l-.5-.3m0 0l-.3-.4m-.1 0l-.5-.4m0-.1l-.3-.4m0 0l-1-.9m0 0l-.5-.3m-.1 0l-.5-.3m0 0l-.3-.3m0-.1l-.5-.3m-.1 0l-.9-.5m.1 0l-.5-.3m-.1-.1l-.4-.2m0 0l-.5-.3m-.1 0l-.5-.2m0 0l-1.1-.7m0 0l-.7-.2m0 0l-.5-.3m0 0l-.5-.2m0 0l-.4-.1m-.1 0l-.5-.2m0-.1l-.5-.1m-.1 0l-.5-.2m0 0l-.4-.2m0 0l-.8-.1m0 0l-.7-.2m0 0l-1.2-.1m0 0l-1.3-.2m0-.1l-.9-.1m.1 0l-1-.2m0 0h-.9m0 0H389m0 0h-.7m.1 0h-1.1m0 0h-.9m0 0l-116.9 10.9m.1 0l-11.5 1.1m100.4 99.9l1.3-.7m-1.3.7l.4.9m.9-1.6l.9-.5m0 0l1-.5m-.1 0l.7-.4m0-.1l.5-.2m0 0l.3-.1m.1 0l.4-.2m0 0l.3-.2m0 0h.5m.1 0l.3-.1m0 0l.3-.2m0-.1h.2m0 0h.1m0 0l.2-.1m.1 0h.1m0 0h.2m0 0h.2m0 0h.1m0 0h.2m0 0h.1m0 0h.2m.1 0h.2m0 0h.1m0 0h.2m0 0h.1m0 0h.2m0 0h.2m0 0h.1m.1 0h.2m0 0h.1m0 0l.2.1m0 0h.2m0 0h.1m0 0h.2m0 0v.2m0 .1h.1m.1 0h.2m0 0l.2.1m0 0h.1m0 0h.2m0 0v.2m0 0h.1m0 0l.2.2m0 0h.1m0 0l.2.1m.1 0h.2m27.1-2.4l-1.1-2.9m0 0l-.9-2.2m0 0l-.1-1m0 0l-.4-1.1m0 0l-.1-.9m-.1.1l-.3-.9m0 0v-.4m0 0l-.2-.5m0-.1v-.3m0 0v-.5m0-.1l-.2-.5m0 0v-.3m0 0v-.3m0 0v-.5m0-.1v-.3m0 0l-.1-.5m0-.1v-.3m0 0l.1-.5m0 0v-.3m0-.1v-.4m0 0v-.4m0 0v-.4m0-.1l.2-.3m0 0v-.3m0 0v-.3m0 0l.2-.3m0-.1l.1-.3m0 0v-.5m0 0l.2-.3m0-.1l.1-.4m.1 0v-.3m0 0l.2-.3m0 0l.2-.3m0-.1l.1-.3m0 0l.2-.4m0 0l.1-.3m0-.1l.2-.3m0 0l.3-.3m.1 0l.2-.3m0 0l.1-.4m0-.1l.3-.3m0 0l.2-.3m0 0l.2-.3m.1-.1l.3-.2m0 0l.3-.3m0 0l.2-.3m0 0l.3-.3m0-.1l.3-.4m.1 0l.7-.7m-.1.1l.9-.7m0 0l.8-.9m1.2.1l-.3-.9m-.9.8l.9-.8m31.1-27.4l-31.2 27.5m31.8-26.7h-.2m0 0v-.2m0 0v-.2m0 0v-.1m0 0l-.3-.3M63.5 630.3l.5.7m-.5-.7l-2 1.2m1.3-2.4l.8 1.2m-.8-1.2l-3.9 2.4m-9.8-15.1l4-2.6m-.7-1l.7 1m-4 1.2l3.4-2.2m-.3-.2l.2.2m242.9-127.2l-23.9 14.9m-11.6-18.7l23.8-15.3m64.9-41.4l-64.9 41.3m-78.3-356.5l.3-1.5m0-.1l.5-1.4m.1 0l.3-1.6m0 0l.2-1.3m0 0l.1-1.6m0 0l.3-1.3m0-.1v-1.4m0 0l.2-1.4m.1 0v-1.4m0 0v-1.4m0 0v-1.2m0 0v-1.4m0 0l-.2-1.3m-.1 0l-.1-1.2m0 0l-.2-1.4m0 0l-.1-1.2m0 0l-.2-1.4m0 0l-.3-1.2m0 0l-.3-1.4m-.1 0l-.3-1.2m0 0l-.4-1.4m0-.1l-.4-1.2m-.1 0l-.4-1.2m0 .1l-.4-1.4m0-.1l-.5-1.2m-.1 0l-.5-1.4m0 0l-1.2-2.6m0 0l-1.2-2.6m0 0l-17.6-32.9m252.2 337.1l-.5-.9m.6 1.2l-.1-.3m1.5 2.4l-.7-1m-3.4-4.5l.5.2m-1.3-.2h.2m1.3.5c-.2-.3-.5-.5-.9-.5m-.6 0h.2m.1 0l-.3.2m0-.2l.5 1.1m1.6.2l-.7-1.1m2 2.9l-.9-1.4m2.2 3.7l-1.2-2m-.1 0c-.4-.1-.8 0-1.2.2m.1 14l-.8-1.1m1.9-13.1h.1m-2 13.1l.9 1.1m2.9-11.6l-.5-.7m-4.9-5.3v.2m0 0v-.2m.1 0l-.1.2M49.1 631.5h9.8m2.7 0h-2.7m4.4 0l.8-.5m-2.5.5h1.7m-14.2-16.9v.3m0 1.5V615m0 16.5v-15.1M396.8 437l2.2 6.2m-2.8-8.3v.4m29.3-75.6l-2.7-4.3m9.6 14.7l-5.5-8.5m-10-15.1l-.8-.9m0 .1l-.5-.9m0 0l-.7-.7m0 0l-.5-.8m0 .1l-.7-.7m0 0l-.7-.7m.1.1l-.8-.8m0 0l-.7-.7m.1.1l-.8-.8m0 0l-.9-.7m0 .1l-.9-.5m.1-.1l-.9-.7m0 .1l-.7-.5m0-.1l-.9-.5m.1 0l-.9-.4m0-.1l-.7-.5m0 0l-.8-.3m.1 0l-1.2-.5m0-.1l-1-.5m0 0l-.9-.3m0 0l-.9-.3m.1-.1l-.9-.4m0 0l-1.1-.1m0 0l-.9-.3m0 0l-1-.2m.1-.1l-1.1-.2m0 0l-1.2-.3m0 0l-.9-.1m0 0h-1.1m0 0l-1-.2m0 0h-1.1m.1 0h-1.1m0 0h-.9m0 0h-1.2m0 0h-1.2m0 0L258 344m163 8.6l-2.9-4.1M258 343.9l-10.8.9m-120-93.2l1.8-3.5m72.2-128.2c1.7-3.2 3.1-6.6 4.1-10.1m-4.6 10.8l.4-.8m-18.5-83.6c-10.9-20.9-34.5-31.7-57.4-26.4m-.2.1l-20 6.8m72.7 330.4l-1-.2m0 0l-1.1-.1m0 0l-3.3-.5m.1-.1h-.4m-.1 0l-.3-.2m0 0h-.1m0 0h-.2m0 0h-.2m0 0v-.1m0 0l-.3-.2m-.1 0l-.1-.1m0 0l-.3-.2m0-.1l-.4-.2m0 0l-.3-.3m-.1 0l-.3-.1m0 0l-.7-.8m.1 0l-.4-.3m-.1 0l-.4-.3m0 0l-.8-.8m0 0l-.7-.9m.1 0l-.8-.9m-6-8.2c1.8 3 3.8 5.8 6.1 8.4m12.4 6.2c3.4.8 6.9 1.3 10.4 1.4m1.1 0h-.5m0 0h-.5m2.8-.2l-1.7.2m41.6-2.5l-39.9 2.3m55.1-3.3l-15.2 1m-92.5-52.7l4.1 9 16.7 30.2m-20.8-39.2l-3.8-9.2m-.1-.1l-1.7-4.1m0 0l-2.1-6.1m0 0l-.8-1.7m.1 0l-.4-1.7m-.1-.1l-.4-1.5m0 0l-.9-3.2m0 .1l-.3-1.3m0-.1l-.3-1.6m0 0l-.2-1.4m0 0l-.1-1.3m0 0l-.2-1.3m-.1 0l-.1-1.3m0 0v-.5m0-.1v-.8m0 .1v-.4m0-.1v-.5m0 0v-.7m0 .1v-.5m0-.1v-.3m0 0v-.4m0-.1v-.1m0 0l.1-.5m0 0v-.2m0 0v-.3m0 0v-.1m0-.1l.2-.2m.1 0v-.3m0 0l.1-.2m0 0v-.1m0 0v-.2m0 0l.2-.2m0-.1v-.1m0 0l.2-.2m0 0v-.1m1.2-2.2l.7-1.2m-2.7 4.6l-.1.1M104.9 16.8L25 44.3m0 0l-3.4 1m.1 0l-1 .2m386.9 420.4c28.2-7.8 56.1-16 83.8-24.8m-210.6 56.2c32-7.1 63.8-14.8 95.5-22.9m118.9-38.5v-4m-3.7 9.2c2.2-.8 3.7-2.9 3.8-5.2m-2.4-6.7h-.2m-.1 0l-1.5-.8m0 0l-2.1-.9m.1 0l-2-.8m0 .1l-1.8-1.1m0 0l-1.7-.9m-.1 0l-1.7-.9m0 .1l-1.7-1.1m-.1 0l-1.7-1m0 0l-1.2-.8m0 0l-1.4-.9m0 .1l-1.2-.9m0 0l-1.3-.9m0 0l-1.3-1.2m0 0l-1.6-1.2m0 0l-1.2-1m0 0l-.7-.5m0 0v-.2m0 0l-.2-.1m0 0h-.1m0 0l-.2-.2m0 0l-.2-.2m-.1-.1l-.1-.1m0 0l-.2-.2m0 0l-.1-.1m0 0l-.4-.2m0 0l-.1-.2m0 0l-.3-.1m-.1 0l-.2-.2m0-.1l-.3-.1m0 0l-.3-.2m0 0l-.4-.2m-.1 0l-.1-.1m0 0l-.3-.2m0 0l-.4-.1m0 0h-.1m0 0l-.3-.2m-.1-.1l-.5-.2m0 0l-.8-.3m0 0l-.4-.1m0 0l-.8-.2m0 0l-.7-.2m.1 0h-.6m0 0l-.7-.1m.1 0l-.8-.2m0-.1h-.6m0 0l-.7-.1m0 0h-.8m.1 0h-.7m0 0h-.8m0 0h-.7m.1 0h-.7m0 0l-.8.1m.1 0h-.7m0 0h-.8m.1 0l-.7.2m0 .1l-.7.1m.1 0h-.8m0 0l-.7.2m0 0l-.7.2m.1 0l-.8.1m0 0l-.7.2m.1 0l-.9.1m0 0l-.8.4m0 .1l-.7.1m.1 0l-1.4.5m0 0l-1.2.5m0 .1l-1.2.5m0 0l-12.2 5.3m0 0l-21.3 9m0 .1l-11.6 4.7m99.5-.6v-.1m0 0v-.2m0 0v-.1m0 0v-.2m0-.1l-.2-.2m-.1 0v-.1m0 0l-.2-.2m0 0v-.1m0 0h-.1m0 0v-.2m0 0h-.2m0 0v-.2m0-.1l-.1-.1m0 0h-.2m0 0v-.2m0 0h-.2m-.1 0l-.1-.1m0 0h-.2m0 0v-.2m0 0h-.1m0 0l-.2-.2m0 0h-.2m0 0l-3.8-1.7m0-.1l-2.6-1.2m0 0l-2.9-1.5m-.1 0l-1.4-.7m0 .1l-1.3-.9m1-11l-3.3-9.2m-35.4-23.7c-1.9-.6-3.9-.9-5.9-.9m6.1.9h-.2m.3 0h-.1m.3 0h-.2m.9.3l-.3-.2m.7.2h-.2m.3.2v-.2m.2.2h-.2m33.7 23.2l-.5-1.3m0 0l-.3-.5m0-.1l-.2-.5m-.1 0l-.1-.3m0 0v-.2m0-.1l-.2-.1m0 0l-.1-.3m0 0l-.2-.2m0 0l-.2-.2m0 0v-.3m0-.1l-.1-.1m0 0l-.2-.2m-.1 0l-.1-.3m0 0l-.2-.2m0 0l-.2-.1m0 0l-.1-.2m0-.1l-.2-.3m0 0l-.1-.2m0 0l-.4-.1m-.1 0l-.1-.2m0 0l-.2-.2m0 0l-.1-.1m0 0l-.2-.2m0-.1l-.3-.1m-.1 0l-.2-.4m0 0l-.1-.1m0 0l-.4-.2m0 0l-.1-.1m0 0l-.3-.2m0-.1h-.2m-.1 0l-.2-.2m0 0l-.4-.3m0 0l-.5-.3m-.1 0l-.9-.3m.1-.1l-2.4-1.1m0 .1l-3.9-1.8m0-.1l-2.6-1.4m0 0l-2.5-1.4m0 0l-2.3-1.4m0 0l-2.5-1.5m0-.1l-2.2-1.4m0 0l-1.1-.8m0 0l-.7-.5m-7.4-3.3h-.2m.5.2l-.3-.2m1.2.3l-.3-.1m.8.3h-.2m.5 0h-.1m5.6 2.7c-2.1-1.5-4.4-2.6-7-3.2m37.5 44.2c2.1-3.3 2.5-7.4 1.1-11.1m-29.3 218l.9.5m16.5 0l.3-.5m-93.1-174.4l75.5 174.4m17.7 0l-64-167.3m-11-34.7l.2-1.5m-19.6 26.3l.1 1.4m-3.8-7.3c-1.9-1.8-4.6-2.5-7.1-1.7m10.9 9v17m0 0v3.8m0 0v.2m0 0h.2m0 0v.2m2.6 5.3v.2m0 0v.1m0 .1h.1m0 0v.2m0 0h.2m.1 0v.2m0 0h.1m0 0h.2m0 0v.1m0 0h.2m0 0h.1m0 0h.2m0 0h.1m0 0h.2m.1 0h.2m0 0h.1m0 0l.3-.1m0 0h.2m0 0h.2m0 0h.1m-5.3-6.1l2.6 5.3m2.8.8l6-1.7M64.1 631l45.6-28.1m30.9-19.1l132-81.4m-20.7-17.3L52.2 612.6M370.9 446h.1m0 0l.2.1m0 0l.3.2m0 0l.2.1m.1.1l.1.2m0 0l.2.2m0 0l.1.3m0 0l.2.1m0 0l.2.2m0 0l.3.2m0 .1l.1.3m.1 0l.2.1m0 0l.2.4m0 0l.1.1m0 0l.3.8m0 0l.4.4m.1 0l.3.8m0 0l.5.7m0-.1l.3.8m.1 0l.3.9m0 0l1.4 2.9m59.4-79.7l-3.7-5.5m-1.5-.2h-.1m.6 0h-.4m1.4.2l-.3-.3m-.3-.3h-.1M296.6 487.7l62.3-38.6m-86.3 53.2l24-14.7m137.8-98.7c3.1-3.2 4-8 2.3-12.2M63.3 631.5l.8-.5m-11.9-18.4l-3.2 2.1m354-198.3l31.4-27.5M396.8 437l-.4-.9m-.1 0l-.1-.9m0 .1l-.2-.9m0 0l-.1-.9m0 0l-.2-.8m0 .1v-.7m0 0l-.2-.3m0 0v-.3m0 0v-.5m0 0v-.9m0 0v-.3m0 0v-.1m0 0v-.4m0 0v-.3m0 0v-.3m0-.1v-.3m0 0v-.3m0 0l.2-.5m0-.1v-.3m0 0v-.2m0 0l.2-.5m0-.1v-.1m0 0l.1-.8m0 .1l.2-.3m0-.1v-.3m0 0l.1-.2m0 0l.2-.3m0 0v-.1m0 0l.2-.4m.1-.1l.1-.3m0 0l.2-.1m0 0v-.4m0 0l.1-.1m0 0l.2-.3m0-.1l.1-.2m0 0l.2-.3m0 0l.2-.2m.1 0l.3-.5m0-.1l.5-.4m0 0l.3-.5m0-.1l.5-.5m.1 0l.4-.5m0 0l.5-.7m.1 0l.8-.5m-.1 0l1.5-1.4m-44 32.6l2.5-1.5m0-.1l1.4-.9m0 .1l.8-.3m0-.1l.4-.2m0 0l.4-.1m.1 0l.1-.2m0 0l.5-.1m0 0l.3-.2m0 0h.2m.1 0h.1m0 0l.2-.2m0 0h.2m0 0h.3m0 0l.1-.1m0 0h.2m.1 0h.2m0 0h.1m0 0h.2m0 0h.1m0 0h.2m0 0v-.2m0-.1h.2m0 0h.1m.1 0h.2m0 0h.1m0 0l.2.2m0 .1h.2m0 0h.1m0 0h.2m0 0h.1m.1 0h.2m0 0v.1m0 0h.2m0 0h.1m0 0l.2.2m0 0h.1m0 0h.2m0 0v.2m0 0h.1m0 0l.2.1m.1 0h.2M17.5 50.7l10.2 61.9m.1 0l12.7 65.3m0 0l14 64.7m0 0l15.1 61.2m0 0l7.8 29m0 0l4.5 15.1m0 .1l4.9 15.1m0 0l5.2 15.2m0 0l5.9 15.3m0 0l3.2 7.6m-.1 0l3 7.5m.1 0l3.5 7.4m0 0l3.7 7.5m0 0l3.8 7.3m0 0l4 7.1m0 0l4.1 7.2m0 0l4.3 6.7m.1 0l4.7 6.7m-.1 0l4.7 6.6m0 .1l2.6 3.3m0-.1l2.4 3.2m0 0l2.6 3.2m0-.1l2.8 3m.1.1l2.6 3.2m0-.1l2.7 2.9m0 .1l2.9 2.9m0 0l3 2.8m.1 0l2.9 2.7m0 0l2.9 2.8m0 .1l3.2 2.6m0 0l3 2.6m0 0l3.4 2.6m0 0l3.3 2.4m0 0l3.5 2.5m-.1 0l3.5 2.4m0 0l3.5 2.3m0 0l3.6 2.2m0-.1l3.7 2.2m0 0l3.6 1.8m233.1-148.3l.7-.3m-3.9 2.4l2.9-2M265.6 476.7l163-104M17.3 49.8l.2.9m106.8-37.4V13m0 0l-.2-.3m0 0v-.2m0-.1v-.1m0 0v-.2m0 0V12m0 0v-.2m0 0v-.2m0 0v-.1m0 0v-.2m0-.1v-.1m0 0v-.2m0 0l.2-.2m0 0v-.1m0 0v-.2m0 0h.1m0 0v-.1m0 0h.2m0 0V10m0 0h.1m0 0v-.1m0 0h.2m.1 0h.2m-.2 0h.2m-.6 4.7l-.3-1.3M231.2 346h-.2M198.9 66.8l-16.2-30.3M131 244.7l47.7-84.8M20.8 45.5c-2 .5-3.5 2.3-3.5 4.3m450.9 580.5c0 .2 0 .5.2.5m-14.6-.5c0 .2.2.5.3.5m15.3 0c.2 0 .3-.1.3-.3m-1.5-.1l.3.4m1.2-.5v.1m-70.8-187.2l7.5 19.8m63.7 167.8h-.8m-15.1 0h-.5m14.8 0h-14.4m15.3 0h-.9m-327.9-47L64.1 631m558.6-228.9H475.1m147.6 229.1H48.2"/></svg>